<?xml version="1.0" encoding="UTF-8"?>
<svg id="Layer_1" xmlns="http://www.w3.org/2000/svg" version="1.1" viewBox="0 0 1400 700">
  <!-- Generator: Adobe Illustrator 30.0.0, SVG Export Plug-In . SVG Version: 2.1.1 Build 123)  -->
  <defs>
    <style>
      .st0 {
        fill: none;
        stroke: #fff;
        stroke-linecap: round;
        stroke-linejoin: round;
        stroke-width: 10.3px;
      }

      .st1 {
        fill: #fff;
      }

      .st2 {
        fill: #1f3140;
      }

      .st3 {
        fill: #eaf1f6;
        font-family: Borna-Bold, Borna;
        font-size: 125px;
        font-weight: 700;
      }

      .st4 {
        isolation: isolate;
      }

      .st5 {
        fill: #16a085;
      }

      .st6 {
        fill: #c9d6df;
      }
    </style>
  </defs>
  <rect class="st2" x="120" y="120" width="460" height="460" rx="48" ry="48"/>
  <rect class="st5" x="180" y="190" width="340" height="296.9" rx="12" ry="12"/>
  <rect class="st6" x="180" y="460" width="340" height="36"/>
  <rect class="st6" x="210" y="400" width="12" height="60"/>
  <rect class="st6" x="250" y="420" width="12" height="40"/>
  <rect class="st6" x="290" y="380" width="12" height="80"/>
  <rect class="st6" x="330" y="420" width="12" height="40"/>
  <rect class="st6" x="370" y="400" width="12" height="60"/>
  <rect class="st6" x="410" y="420" width="12" height="40"/>
  <rect class="st6" x="450" y="380" width="12" height="80"/>
  <g class="st4">
    <g>
      <path class="st1" d="M628.2,305.3h-2.6v-21.6h2.6v21.6Z"/>
      <path class="st1" d="M636.8,292.7h1.1l-.7,1.1c.3-1,.7-1.9,1.4-2.8.6-.9,1.4-1.5,2.4-2.1.9-.5,2-.8,3.1-.8s2,.2,2.8.7,1.4,1.1,1.8,1.9c.4.9.6,1.9.6,3.2v11.4h-2.5v-10.8c0-.9-.1-1.6-.3-2.2-.2-.6-.6-1.1-1.2-1.4-.5-.3-1.2-.5-2.1-.5s-2.2.2-3.1.7c-.9.5-1.6,1.1-2.1,2-.5.8-.8,1.8-.8,2.8v9.3h-2.4v-16.7h2.4v6.4l-.4-2.3Z"/>
      <path class="st1" d="M661.6,305.8c-1.7,0-3-.2-4-.6-1-.4-1.8-1-2.4-1.8-.6-.8-.9-1.7-1.2-2.8l2.2-.5c.2.7.5,1.3.9,1.9s1,1,1.7,1.3c.7.3,1.7.5,2.9.5s2.3-.2,3-.7c.7-.5,1-1.2,1-2.1s-.2-1.2-.5-1.6c-.3-.4-.9-.7-1.6-1-.7-.3-1.7-.5-2.9-.6-1.4-.3-2.5-.6-3.4-1-.9-.4-1.5-.9-1.8-1.6-.4-.6-.6-1.4-.6-2.2,0-1.4.5-2.6,1.5-3.5,1-.9,2.6-1.3,4.6-1.3s2.6.2,3.4.6c.8.4,1.5.9,1.9,1.6.4.7.8,1.5,1.1,2.4l-2.2.5c-.3-1.2-.8-2-1.5-2.4-.7-.4-1.6-.7-2.7-.7s-2.3.2-2.9.7c-.6.5-1,1.2-1,2s.1.9.4,1.3c.3.4.7.7,1.4,1,.6.3,1.5.5,2.6.7,1.6.2,2.8.6,3.8,1,.9.4,1.6,1,2.1,1.6.4.6.6,1.4.6,2.3s-.2,1.8-.6,2.5c-.4.7-1.1,1.3-2,1.7-.9.4-2.2.6-3.8.6Z"/>
      <path class="st1" d="M671.2,288.6h10.9v2.1h-10.9v-2.1ZM674.1,300.5v-16.7h2.4v16.6c0,1,.2,1.8.7,2.4.4.5,1.2.8,2.1.8s1,0,1.4,0,.8-.2,1.4-.3l.4,2.1c-.4,0-.7.2-1.1.3s-.7.2-1.1.2-.8,0-1.3,0c-1.1,0-2.1-.2-2.8-.7-.7-.5-1.2-1.1-1.6-1.9-.3-.8-.5-1.7-.5-2.7Z"/>
      <path class="st1" d="M690.5,305.7c-1.1,0-2-.2-2.7-.5-.8-.3-1.4-.8-1.8-1.5-.4-.7-.6-1.6-.6-2.6s.5-2.5,1.4-3.4,2.4-1.4,4.5-1.4h6.2v1.6h-5.9c-1.2,0-2.2.3-2.9.8s-1,1.3-1,2.3.1,1,.3,1.4c.2.4.6.8,1.1,1s1.2.4,2.1.4,2.1-.2,3-.6c.9-.4,1.5-.9,2-1.6.5-.7.7-1.5.7-2.3v-4.9c0-1.3-.3-2.3-.9-3-.6-.7-1.7-1-3.2-1s-2.1.3-2.8.8-1.2,1.3-1.6,2.2l-2.3-.9c.3-.8.8-1.6,1.4-2.2.6-.6,1.4-1.1,2.3-1.5.9-.4,1.9-.5,3.1-.5s2.8.2,3.7.7c1,.5,1.7,1.1,2.1,2.1.5.9.7,2,.7,3.3v11.1h-2.2v-4.9l.4,1.2h-1.2l.6-1c-.2,1-.6,1.9-1.2,2.6s-1.3,1.3-2.2,1.8c-.9.4-1.9.6-3.1.6Z"/>
      <path class="st1" d="M707.5,292.7h1.1l-.7,1.1c.3-1,.8-1.9,1.4-2.8.6-.9,1.4-1.5,2.4-2.1.9-.5,2-.8,3.1-.8s2,.2,2.8.7,1.4,1.1,1.8,1.9c.4.9.6,1.9.6,3.2v11.4h-2.5v-10.8c0-.9-.1-1.6-.3-2.2-.2-.6-.6-1.1-1.2-1.4-.5-.3-1.2-.5-2.1-.5s-2.2.2-3.1.7c-.9.5-1.6,1.1-2.1,2-.5.8-.8,1.8-.8,2.8v9.3h-2.4v-16.7h2.4v6.4l-.4-2.3Z"/>
      <path class="st1" d="M724.3,288.6h10.9v2.1h-10.9v-2.1ZM727.1,300.5v-16.7h2.4v16.6c0,1,.2,1.8.7,2.4.4.5,1.2.8,2.1.8s1,0,1.3,0c.4,0,.8-.2,1.3-.3l.4,2.1c-.4,0-.7.2-1.1.3s-.7.2-1.1.2-.8,0-1.3,0c-1.1,0-2.1-.2-2.8-.7-.7-.5-1.2-1.1-1.6-1.9s-.5-1.7-.5-2.7Z"/>
      <path class="st1" d="M756.4,305.7c-1.5,0-2.7-.2-3.8-.5-1.1-.3-1.9-.7-2.7-1.3-.7-.6-1.3-1.3-1.7-2.1-.4-.8-.7-1.8-.9-2.8l2.4-.6c.2,1.2.6,2.1,1.1,2.9.5.8,1.2,1.3,2.1,1.7.9.4,2,.5,3.4.5,2,0,3.4-.3,4.2-1,.8-.7,1.2-1.6,1.2-2.8s-.2-1.4-.6-1.9c-.4-.5-1-1-1.9-1.3-.9-.4-2.1-.7-3.6-1-1.9-.4-3.5-.8-4.6-1.4-1.1-.6-1.9-1.3-2.4-2.1-.5-.8-.7-1.8-.7-2.8,0-1.8.6-3.2,1.9-4.2,1.3-1.1,3.3-1.6,6-1.6s3,.2,4.1.7c1.1.4,1.9,1.1,2.5,1.9s1,1.9,1.3,3.1l-2.6.5c-.3-.9-.6-1.7-1-2.3-.4-.6-.9-1.1-1.6-1.4-.7-.3-1.6-.5-2.8-.5-1.9,0-3.3.3-4.1,1-.8.6-1.2,1.5-1.2,2.6s.2,1.3.5,1.8c.3.5.9,1,1.8,1.4s2.1.8,3.7,1.1c1.6.3,2.8.7,3.9,1.1,1,.4,1.8.9,2.4,1.4.6.5,1,1.1,1.2,1.7s.3,1.3.3,2c0,1.2-.3,2.3-.8,3.3s-1.4,1.6-2.5,2.1-2.7.8-4.7.8Z"/>
      <path class="st1" d="M772,288.6v22.8h-2.4v-22.8h2.4ZM771.3,301.4v-1.6h.7l.5,1.6h-1.3ZM771.5,294.6v-2.1c-.1,0,1.1,0,1.1,0l-.5,2.1h-.6ZM784.5,297c0,2.9-.5,5.1-1.6,6.6-1.1,1.4-2.6,2.2-4.5,2.2s-1.9-.2-2.6-.6c-.8-.4-1.5-.9-2.1-1.6-.6-.7-1.1-1.4-1.4-2.2-.3-.8-.5-1.7-.5-2.6l.2-.5c0,1,.2,1.9.7,2.7.4.8,1.1,1.5,1.8,1.9.8.5,1.7.7,2.7.7,1.7,0,2.9-.5,3.7-1.5.8-1,1.2-2.7,1.2-5s-.4-4-1.2-5c-.8-1-2-1.5-3.7-1.5s-2,.2-2.8.7c-.8.5-1.4,1.1-1.8,1.9-.4.8-.6,1.7-.6,2.8v-1.5c0-1.1.4-2.1,1-3,.5-.9,1.2-1.7,2.1-2.3.9-.6,1.9-.9,3.2-.9,2,0,3.6.7,4.7,2.2,1.1,1.5,1.7,3.7,1.7,6.6Z"/>
      <path class="st1" d="M793.2,305.7c-1.1,0-2-.2-2.7-.5-.8-.3-1.4-.8-1.8-1.5-.4-.7-.6-1.6-.6-2.6s.5-2.5,1.4-3.4,2.4-1.4,4.5-1.4h6.2v1.6h-5.9c-1.2,0-2.2.3-2.9.8s-1,1.3-1,2.3.1,1,.3,1.4c.2.4.6.8,1.1,1s1.2.4,2.1.4,2.1-.2,3-.6c.9-.4,1.5-.9,2-1.6.5-.7.7-1.5.7-2.3v-4.9c0-1.3-.3-2.3-.9-3-.6-.7-1.7-1-3.2-1s-2.1.3-2.8.8-1.2,1.3-1.6,2.2l-2.3-.9c.3-.8.8-1.6,1.4-2.2.6-.6,1.4-1.1,2.3-1.5.9-.4,1.9-.5,3.1-.5s2.8.2,3.7.7c1,.5,1.7,1.1,2.1,2.1.5.9.7,2,.7,3.3v11.1h-2.2v-4.9l.4,1.2h-1.2l.6-1c-.2,1-.6,1.9-1.2,2.6s-1.3,1.3-2.2,1.8c-.9.4-1.9.6-3.1.6Z"/>
      <path class="st1" d="M806.5,288.6h10.9v2.1h-10.9v-2.1ZM809.3,300.5v-16.7h2.4v16.6c0,1,.2,1.8.7,2.4.4.5,1.2.8,2.1.8s1,0,1.3,0c.4,0,.8-.2,1.3-.3l.4,2.1c-.4,0-.7.2-1.1.3s-.7.2-1.1.2-.8,0-1.3,0c-1.1,0-2.1-.2-2.8-.7-.7-.5-1.2-1.1-1.6-1.9s-.5-1.7-.5-2.7Z"/>
      <path class="st1" d="M825.1,284.4h-3v-2.7h3v2.7ZM824.9,305.3h-2.5v-16.7h2.5v16.7Z"/>
      <path class="st1" d="M835.2,305.7c-1.1,0-2-.2-2.7-.5-.8-.3-1.4-.8-1.8-1.5-.4-.7-.6-1.6-.6-2.6s.5-2.5,1.4-3.4,2.4-1.4,4.5-1.4h6.2v1.6h-5.9c-1.2,0-2.2.3-2.9.8s-1,1.3-1,2.3.1,1,.3,1.4c.2.4.6.8,1.1,1s1.2.4,2.1.4,2.1-.2,3-.6c.9-.4,1.5-.9,2-1.6.5-.7.7-1.5.7-2.3v-4.9c0-1.3-.3-2.3-.9-3-.6-.7-1.7-1-3.2-1s-2.1.3-2.8.8-1.2,1.3-1.6,2.2l-2.3-.9c.3-.8.8-1.6,1.4-2.2.6-.6,1.4-1.1,2.3-1.5.9-.4,1.9-.5,3.1-.5s2.8.2,3.7.7c1,.5,1.7,1.1,2.1,2.1.5.9.7,2,.7,3.3v11.1h-2.2v-4.9l.4,1.2h-1.2l.6-1c-.2,1-.6,1.9-1.2,2.6s-1.3,1.3-2.2,1.8c-.9.4-1.9.6-3.1.6Z"/>
      <path class="st1" d="M853,281.2v24.1h-2.5v-24.1h2.5Z"/>
      <path class="st1" d="M870.3,285.9l1.2-1.3v20.7h-2.6v-21.6h8c1.9,0,3.4.2,4.6.7,1.2.5,2,1.2,2.6,2.1.5.9.8,2.1.8,3.5s-.3,2.5-.9,3.5c-.6,1-1.5,1.8-2.7,2.3-1.2.5-2.7.8-4.4.8h-6.5v-2.2h6.3c1.8,0,3.2-.4,4.1-1.1,1-.7,1.5-1.9,1.5-3.4s-.2-1.8-.5-2.4c-.3-.6-.9-1.1-1.7-1.3-.8-.3-1.9-.4-3.3-.4h-6.3ZM878.7,295.4l7.3,9.2v.7h-2.7l-7.1-9.8h2.6Z"/>
      <path class="st1" d="M897.1,305.7c-1.7,0-3.2-.3-4.4-1-1.2-.7-2.1-1.7-2.8-3-.6-1.3-1-2.9-1-4.7s.3-3.4,1-4.8c.7-1.3,1.6-2.3,2.8-3,1.2-.7,2.6-1,4.2-1s3,.3,4.1,1c1.1.6,1.9,1.5,2.4,2.7.5,1.1.8,2.5.8,4v.8c0,.3,0,.6,0,1h-13.6v-1.7h12.1l-.7.6c0-2-.3-3.6-1.1-4.7-.8-1.1-2.1-1.7-3.9-1.7s-3.2.6-4.1,1.7c-.9,1.2-1.4,2.9-1.4,5.1s.5,3.8,1.4,4.9c.9,1.2,2.3,1.8,4.3,1.8s2-.2,2.6-.5c.6-.3,1.1-.8,1.5-1.3.3-.6.6-1.2.8-1.9l2.2.6c-.3,1.1-.7,2-1.2,2.8-.6.8-1.3,1.4-2.2,1.8-.9.4-2.1.6-3.5.6Z"/>
      <path class="st1" d="M915.6,305.8c-1.7,0-3-.2-4.1-.6-1-.4-1.8-1-2.4-1.8-.6-.8-.9-1.7-1.2-2.8l2.2-.5c.2.7.5,1.3.9,1.9.4.6,1,1,1.7,1.3.7.3,1.7.5,2.9.5s2.3-.2,3-.7c.7-.5,1-1.2,1-2.1s-.2-1.2-.5-1.6c-.3-.4-.9-.7-1.6-1-.7-.3-1.7-.5-2.9-.6-1.4-.3-2.5-.6-3.4-1s-1.5-.9-1.8-1.6c-.4-.6-.6-1.4-.6-2.2,0-1.4.5-2.6,1.5-3.5,1-.9,2.6-1.3,4.6-1.3s2.6.2,3.4.6c.8.4,1.5.9,1.9,1.6.4.7.8,1.5,1.1,2.4l-2.2.5c-.3-1.2-.8-2-1.5-2.4s-1.6-.7-2.7-.7-2.3.2-2.9.7-1,1.2-1,2,.1.9.4,1.3c.3.4.7.7,1.4,1,.6.3,1.5.5,2.6.7,1.6.2,2.8.6,3.8,1,.9.4,1.6,1,2.1,1.6.4.6.6,1.4.6,2.3s-.2,1.8-.6,2.5c-.4.7-1.1,1.3-2,1.7-.9.4-2.2.6-3.8.6Z"/>
      <path class="st1" d="M934,305.7c-1.8,0-3.3-.4-4.5-1.1s-2.1-1.7-2.7-3.1c-.6-1.3-.9-2.9-.9-4.7s.3-3.4,1-4.7c.7-1.3,1.6-2.3,2.8-3,1.2-.7,2.7-1,4.3-1s3.1.3,4.3,1,2.2,1.7,2.8,3c.7,1.3,1,2.9,1,4.7,0,2.7-.7,4.9-2.1,6.4-1.4,1.6-3.4,2.4-6,2.4ZM934,290.3c-1.9,0-3.3.6-4.3,1.7-.9,1.2-1.4,2.8-1.4,4.8s.2,2.6.6,3.6c.4,1,1,1.8,1.8,2.4.8.6,1.9.8,3.2.8,2,0,3.4-.6,4.3-1.8.9-1.2,1.4-2.9,1.4-4.9s-.2-2.6-.6-3.5-1-1.7-1.9-2.2c-.8-.5-1.9-.8-3.1-.8Z"/>
      <path class="st1" d="M950,281.2v24.1h-2.5v-24.1h2.5Z"/>
      <path class="st1" d="M969,301.2h-1.2l.7-1.1c-.3,1-.7,1.9-1.4,2.7-.6.9-1.4,1.6-2.4,2.1-.9.5-2,.8-3.1.8s-2-.2-2.8-.7c-.8-.4-1.4-1.1-1.8-1.9-.4-.9-.6-1.9-.6-3.2v-11.4h2.4v10.9c0,.8.1,1.6.4,2.2.2.6.6,1.1,1.2,1.4.5.3,1.2.5,2.1.5s2.2-.2,3.1-.7,1.6-1.1,2.1-2c.5-.8.8-1.8.8-2.8v-9.3h2.4v16.7h-2.4v-6.4l.4,2.3Z"/>
      <path class="st1" d="M975.5,288.6h10.9v2.1h-10.9v-2.1ZM978.3,300.5v-16.7h2.4v16.6c0,1,.2,1.8.7,2.4.4.5,1.2.8,2.1.8s1,0,1.3,0c.4,0,.8-.2,1.3-.3l.4,2.1c-.4,0-.7.2-1.1.3s-.7.2-1.1.2-.8,0-1.3,0c-1.1,0-2.1-.2-2.8-.7-.7-.5-1.2-1.1-1.6-1.9s-.5-1.7-.5-2.7Z"/>
      <path class="st1" d="M994.2,284.4h-3v-2.7h3v2.7ZM993.9,305.3h-2.5v-16.7h2.5v16.7Z"/>
      <path class="st1" d="M1007.4,305.7c-1.8,0-3.3-.4-4.5-1.1s-2.1-1.7-2.7-3.1c-.6-1.3-.9-2.9-.9-4.7s.3-3.4,1-4.7c.7-1.3,1.6-2.3,2.8-3,1.2-.7,2.7-1,4.3-1s3.1.3,4.3,1,2.2,1.7,2.8,3c.7,1.3,1,2.9,1,4.7,0,2.7-.7,4.9-2.1,6.4-1.4,1.6-3.4,2.4-6,2.4ZM1007.4,290.3c-1.9,0-3.3.6-4.3,1.7-.9,1.2-1.4,2.8-1.4,4.8s.2,2.6.6,3.6c.4,1,1,1.8,1.8,2.4.8.6,1.9.8,3.2.8,2,0,3.4-.6,4.3-1.8.9-1.2,1.4-2.9,1.4-4.9s-.2-2.6-.6-3.5-1-1.7-1.9-2.2c-.8-.5-1.9-.8-3.1-.8Z"/>
      <path class="st1" d="M1022.6,292.7h1.1l-.7,1.1c.3-1,.8-1.9,1.4-2.8.6-.9,1.4-1.5,2.4-2.1.9-.5,2-.8,3.1-.8s2,.2,2.8.7,1.4,1.1,1.8,1.9c.4.9.6,1.9.6,3.2v11.4h-2.5v-10.8c0-.9-.1-1.6-.3-2.2-.2-.6-.6-1.1-1.2-1.4-.5-.3-1.2-.5-2.1-.5s-2.2.2-3.1.7c-.9.5-1.6,1.1-2.1,2-.5.8-.8,1.8-.8,2.8v9.3h-2.4v-16.7h2.4v6.4l-.4-2.3Z"/>
    </g>
  </g>
  <path class="st1" d="M792.4,512.2h0c2.7,0,4.1,1.9,4.1,5.1v10.2h-5.3v-8.7c0-1.2-.4-1.9-1.6-1.9s-2,1-2,2.4v8.1h-5.3v-8.7c0-1.2-.4-1.9-1.6-1.9s-2,1-2,2.4v8.1h-5.3v-3c-.7,2.3-1.9,3.5-4.1,3.5s-3.7-1.6-4.5-4.3h-.2v8.5h-5.3v-9.2c-.6,3.2-2.3,4.9-4.5,4.9s-3.7-1.6-4.5-4.3h-.2v8.5h-5.3v-10.1h-2.6v31.4c0,10.5-6.9,16.6-15.7,16.6s-14.2-4.6-15.5-12.7h-3.3c-1.2,8.1-6.3,12.7-15.2,12.7s-14-4.5-15.2-12.6h-6.1v8.7c0,1.8-1.4,3.3-3.3,3.3h-6.9v-12h-20v-9.4l18.8-44.6h11.3v44.6h12.4c1.8,0,3.3,1.5,3.3,3.3v2.8c0,4.7,2.1,6.4,5.4,6.4s5.4-1.7,5.4-6.4v-14.5c0-4.7-2.1-6.5-5.4-6.5s-5.4,1.8-5.4,6.5v2h-9.8l1.9-38.3h27.3v6c0,1.9-1.5,3.4-3.4,3.4h-14.6l-.9,15.7c1.9-3.1,1.4-4.8,9.1-4.8s11.5,5.4,11.5,15.1v9.2h2.7v-28.8c0-10.5,7.9-16.6,15.7-16.6s12.9,3.6,14.9,10h8.8v3.6h.3c.9-2.6,2.2-4.1,4.5-4.1s3.8,1.7,4.4,4.9v-4.4h5.3v3.6h.3c.9-2.6,2.6-4.1,4.5-4.1s3.3,1.2,4.1,3.4v-3h5.1v4h.4c.9-3,2.3-4.5,4.7-4.5s3.6,1.6,3.8,4.5h.4c.9-3,2.5-4.5,4.7-4.5h0v.5h-.1ZM661,523.2l-10.5,24.8h10.5v-24.8ZM731.7,554.3v-35.6c0-4.7-2.1-6.5-5.4-6.5s-5.4,1.8-5.4,6.5v35.6c0,4.7,2.1,6.5,5.4,6.5s5.4-1.8,5.4-6.5h0ZM752.1,523.4h0c1.6,0,2.2-1.1,2.2-3.2s-.9-3.2-2.2-3.2-2.1,1-2.1,2.7v1.2c0,1.6.8,2.6,2.1,2.6h0ZM766.6,523.4h0c1.6,0,2.2-1.1,2.2-3.2s-.9-3.2-2.2-3.2-2.1,1-2.1,2.7v1.2c0,1.6.8,2.6,2.1,2.6h0Z"/>
  <g>
    <circle class="st0" cx="360.7" cy="291.9" r="82.5"/>
    <line class="st0" x1="387.9" y1="369.8" x2="387.9" y2="276"/>
    <line class="st0" x1="333.5" y1="308" x2="333.5" y2="214"/>
    <line class="st0" x1="360.7" y1="324" x2="279.7" y2="276.4"/>
    <line class="st0" x1="360.7" y1="259.9" x2="441.7" y2="307.6"/>
    <line class="st0" x1="333.5" y1="276" x2="413.7" y2="228.7"/>
    <line class="st0" x1="387.9" y1="308" x2="307.8" y2="355.2"/>
  </g>
  <text class="st3" transform="translate(622 227.3)"><tspan x="0" y="0">Spatio</tspan></text>
</svg>